HIERARCHY
ROOT joint_Root
{
	OFFSET 0.0 0.0 0.0
	CHANNELS 6 Xposition Yposition Zposition Zrotation Xrotation Yrotation 
	JOINT Hips
	{
		OFFSET 4.5925 91.4895 -427.239
		CHANNELS 6 Xposition Yposition Zposition Zrotation Xrotation Yrotation 
		JOINT Spine
		{
			OFFSET 15.7357 0.0 0.0
			CHANNELS 6 Xposition Yposition Zposition Zrotation Xrotation Yrotation 
			JOINT Chest
			{
				OFFSET 8.98455 -0.406207 0.0
				CHANNELS 6 Xposition Yposition Zposition Zrotation Xrotation Yrotation 
				JOINT Neck
				{
					OFFSET 16.3773 0.0 0.0
					CHANNELS 6 Xposition Yposition Zposition Zrotation Xrotation Yrotation 
					JOINT Head
					{
						OFFSET 6.45672 0.0 0.0
						CHANNELS 6 Xposition Yposition Zposition Zrotation Xrotation Yrotation 
						End Site
						{
							OFFSET 0.0 0.0 0.0
						}
					}
				}
				JOINT Shoulder_L
				{
					OFFSET 12.9942 -0.242716 4.98039
					CHANNELS 6 Xposition Yposition Zposition Zrotation Xrotation Yrotation 
					JOINT UpperArm_L
					{
						OFFSET 5.34809 0.0 0.0
						CHANNELS 6 Xposition Yposition Zposition Zrotation Xrotation Yrotation 
						JOINT LowerArm_L
						{
							OFFSET 24.3286 1.87007e-05 0.0
							CHANNELS 6 Xposition Yposition Zposition Zrotation Xrotation Yrotation 
							JOINT Hand_L
							{
								OFFSET 22.2916 0.0 0.0
								CHANNELS 6 Xposition Yposition Zposition Zrotation Xrotation Yrotation 
								End Site
								{
									OFFSET 0.0 0.0 0.0
								}
							}
						}
					}
				}
				JOINT Shoulder_R
				{
					OFFSET 12.9945 -0.242716 -4.98039
					CHANNELS 6 Xposition Yposition Zposition Zrotation Xrotation Yrotation 
					JOINT UpperArm_R
					{
						OFFSET -5.34813 0.0 0.0
						CHANNELS 6 Xposition Yposition Zposition Zrotation Xrotation Yrotation 
						JOINT LowerArm_R
						{
							OFFSET -24.3289 0.000322201 0.0
							CHANNELS 6 Xposition Yposition Zposition Zrotation Xrotation Yrotation 
							JOINT Hand_R
							{
								OFFSET -22.2915 -0.000108084 0.0
								CHANNELS 6 Xposition Yposition Zposition Zrotation Xrotation Yrotation 
								End Site
								{
									OFFSET 0.0 0.0 0.0
								}
							}
						}
					}
				}
			}
		}
		JOINT UpperLeg_L
		{
			OFFSET -2.19248 -6.46944 0.0
			CHANNELS 6 Xposition Yposition Zposition Zrotation Xrotation Yrotation 
			JOINT LowerLeg_L
			{
				OFFSET 39.0811 0.0 -1.23785e-05
				CHANNELS 6 Xposition Yposition Zposition Zrotation Xrotation Yrotation 
				JOINT Foot_L
				{
					OFFSET 40.9854 0.0 -1.26872e-05
					CHANNELS 6 Xposition Yposition Zposition Zrotation Xrotation Yrotation 
					JOINT Toes_L
					{
						OFFSET 11.7543 0.0 0.0
						CHANNELS 6 Xposition Yposition Zposition Zrotation Xrotation Yrotation 
						End Site
						{
							OFFSET 0.0 0.0 0.0
						}
					}
				}
			}
		}
		JOINT UpperLeg_R
		{
			OFFSET -2.19251 6.46944 0.0
			CHANNELS 6 Xposition Yposition Zposition Zrotation Xrotation Yrotation 
			JOINT LowerLeg_R
			{
				OFFSET -39.0811 -0.00228153 -0.0401928
				CHANNELS 6 Xposition Yposition Zposition Zrotation Xrotation Yrotation 
				JOINT Foot_R
				{
					OFFSET -40.9854 0.0 0.0
					CHANNELS 6 Xposition Yposition Zposition Zrotation Xrotation Yrotation 
					JOINT Toes_R
					{
						OFFSET -11.7543 0.0 0.0
						CHANNELS 6 Xposition Yposition Zposition Zrotation Xrotation Yrotation 
						End Site
						{
							OFFSET 0.0 0.0 0.0
						}
					}
				}
			}
		}
	}
}
MOTION
Frames:	4
Frame Time:	0.0333333
0.000000 0.000000 0.000000 0.000000 0.000000 -0.000000 2.682030 91.542000 2.233250 88.353600 -16.295700 2.497720 15.735700 0.000005 -0.000001 79.979200 85.499700 -77.103300 8.984550 -0.406207 -0.000000 1.147880 -1.731430 5.764730 16.377300 -0.000001 -0.000001 5.035630 0.481354 -4.927820 6.456720 -0.000001 -0.000000 0.514516 -1.180080 -4.521950 12.994200 -0.242716 4.980390 -84.677900 -10.119400 -62.067100 5.348090 -0.000007 -0.000001 -36.060900 -62.326900 -80.896200 24.328600 0.000019 0.000005 19.939700 14.984100 -54.523800 22.291600 -0.000001 0.000005 35.836300 5.189530 2.980550 12.994500 -0.242716 -4.980390 88.121400 8.349130 -77.271600 -5.348130 -0.000001 -0.000004 -60.075200 26.181500 -7.337420 -24.328900 0.000322 -0.000009 1.634190 3.991180 -22.301600 -22.291500 -0.000108 -0.000004 15.578600 5.397400 -2.853220 -2.192480 -6.469440 -0.000000 -176.561000 -24.550100 -1.891060 39.081100 -0.000007 -0.000012 -0.123874 0.262085 25.297700 40.985400 -0.000006 -0.000013 2.178370 4.588050 -70.490900 11.754300 -0.000000 0.000003 -0.000141 -0.001376 -16.629900 -2.192510 6.469440 -0.000001 175.528000 17.430600 174.324000 -39.081100 -0.002282 -0.040193 -0.013647 0.035382 25.606700 -40.985400 0.000008 0.000006 5.838640 22.388200 -68.704800 -11.754300 -0.000006 -0.000006 -0.000247 -0.004051 -16.738400
0.000000 0.000000 0.000000 0.000000 0.000000 -0.000000 2.461700 91.577800 2.184130 88.515900 -15.307400 2.541120 15.735700 0.000005 -0.000001 80.064100 85.499200 -77.323700 8.984550 -0.406207 -0.000000 1.147870 -1.710620 5.493580 16.377300 -0.000001 -0.000001 5.118850 0.179107 -4.746210 6.456720 -0.000001 -0.000000 0.513289 -1.356390 -4.291130 12.994200 -0.242716 4.980390 -85.014100 -9.517820 -62.184000 5.348090 -0.000007 -0.000001 -36.375100 -60.997000 -78.619500 24.328600 0.000019 0.000005 20.300900 12.729600 -59.221500 22.291600 -0.000001 0.000005 34.774100 5.171160 3.434290 12.994500 -0.242716 -4.980390 88.054700 8.443810 -76.976400 -5.348130 -0.000001 -0.000004 -60.379600 25.740900 -7.330480 -24.328900 0.000322 -0.000009 1.441010 3.501010 -22.403500 -22.291500 -0.000108 -0.000004 15.831800 5.395710 -2.798390 -2.192480 -6.469440 -0.000000 -176.527000 -24.248100 -1.884960 39.081100 -0.000007 -0.000012 -0.119846 0.255816 25.102400 40.985400 -0.000006 -0.000013 2.200010 5.292040 -70.285600 11.754300 -0.000000 0.000003 -0.000127 -0.001259 -16.625600 -2.192510 6.469440 -0.000001 175.450000 18.062900 174.553000 -39.081100 -0.002282 -0.040193 -0.022789 0.054809 25.463700 -40.985400 0.000008 0.000006 5.633740 22.070800 -68.628900 -11.754300 -0.000006 -0.000006 -0.000133 -0.002201 -16.663200
0.000000 0.000000 0.000000 0.000000 0.000000 -0.000000 2.222740 91.598700 2.133110 88.645700 -14.153100 2.639220 15.735700 0.000005 -0.000001 80.004500 85.470900 -77.388600 8.984550 -0.406207 -0.000000 1.199900 -1.721290 5.245740 16.377300 -0.000001 -0.000001 5.116980 -0.160290 -4.341100 6.456720 -0.000001 -0.000000 0.594721 -1.461790 -4.184320 12.994200 -0.242716 4.980390 -85.497300 -8.743000 -62.612700 5.348090 -0.000007 -0.000001 -35.572200 -58.989000 -74.077500 24.328600 0.000019 0.000005 20.128100 9.537320 -65.677800 22.291600 -0.000001 0.000005 33.008500 5.163800 3.614140 12.994500 -0.242716 -4.980390 87.998700 8.524050 -76.735000 -5.348130 -0.000001 -0.000004 -60.704600 25.594800 -7.277230 -24.328900 0.000322 -0.000009 1.179350 2.862440 -22.421400 -22.291500 -0.000108 -0.000004 16.034000 5.395820 -2.802080 -2.192480 -6.469440 -0.000000 -176.421000 -23.817200 -1.899850 39.081100 -0.000007 -0.000012 -0.117933 0.252426 25.041900 40.985400 -0.000006 -0.000013 2.221180 6.052190 -70.127800 11.754300 -0.000000 0.000003 -0.000147 -0.001425 -16.631700 -2.192510 6.469440 -0.000001 175.370000 18.841200 174.859000 -39.081100 -0.002282 -0.040193 -0.037296 0.085646 25.367000 -40.985400 0.000008 0.000006 5.377240 21.745100 -68.571900 -11.754300 -0.000006 -0.000006 -0.000079 -0.001315 -16.627200
0.000000 0.000000 0.000000 0.000000 0.000000 -0.000000 1.981140 91.609200 2.067560 88.817200 -12.896100 2.778260 15.735700 0.000005 -0.000001 80.026200 85.432200 -77.549100 8.984550 -0.406207 -0.000000 1.274170 -1.721770 4.969340 16.377300 -0.000001 -0.000001 5.077310 -0.526527 -3.917600 6.456720 -0.000001 -0.000000 0.689987 -1.579430 -3.969060 12.994200 -0.242716 4.980390 -86.045500 -7.937650 -63.408800 5.348090 -0.000007 -0.000001 -34.153900 -56.039700 -67.508500 24.328600 0.000019 0.000005 19.471100 5.906370 -73.779200 22.291600 -0.000001 0.000005 30.726100 5.158560 3.737760 12.994500 -0.242716 -4.980390 87.951300 8.582970 -76.521300 -5.348130 -0.000001 -0.000004 -61.167500 25.228600 -7.237810 -24.328900 0.000322 -0.000009 1.151510 2.836950 -22.121100 -22.291500 -0.000108 -0.000004 15.805900 5.397500 -2.856160 -2.192480 -6.469440 -0.000000 -176.339000 -23.408400 -1.925350 39.081100 -0.000007 -0.000012 -0.119472 0.255846 25.031300 40.985400 -0.000006 -0.000013 2.272550 6.908850 -69.981700 11.754300 -0.000000 0.000003 -0.000147 -0.001432 -16.632000 -2.192510 6.469440 -0.000001 175.206000 19.775600 175.173000 -39.081100 -0.002282 -0.040193 -0.053441 0.119842 25.340200 -40.985400 0.000008 0.000006 5.036300 21.503500 -68.513300 -11.754300 -0.000006 -0.000006 -0.000125 -0.002084 -16.658500
